<svg xmlns="http://www.w3.org/2000/svg" xmlns:xlink="http://www.w3.org/1999/xlink" width="1080" zoomAndPan="magnify" viewBox="0 0 810 1439.999935" height="1920" preserveAspectRatio="xMidYMid meet" version="1.0"><defs><g/><clipPath id="f60657b1ce"><path d="M 81 390.230469 L 718 390.230469 L 718 1049.480469 L 81 1049.480469 Z M 81 390.230469 " clip-rule="nonzero"/></clipPath></defs><rect x="-81" width="972" fill="#ffffff" y="-143.999994" height="1727.999922" fill-opacity="1"/><rect x="-81" width="972" fill="#0b0b0b" y="-143.999994" height="1727.999922" fill-opacity="1"/><g clip-path="url(#f60657b1ce)"><path fill="#ffae32" d="M 683.1875 564.296875 C 683.1875 564.238281 683.125 564.179688 683.09375 564.113281 C 682.191406 562.371094 681.179688 560.699219 680.046875 559.097656 C 678.917969 557.496094 677.683594 555.980469 676.347656 554.546875 C 675.007812 553.113281 673.578125 551.78125 672.058594 550.542969 C 670.539062 549.304688 668.9375 548.179688 667.261719 547.160156 C 665.585938 546.144531 663.851562 545.246094 662.050781 544.464844 C 660.253906 543.6875 658.410156 543.03125 656.519531 542.507812 C 654.632812 541.980469 652.714844 541.582031 650.773438 541.320312 C 648.832031 541.054688 646.878906 540.925781 644.917969 540.929688 L 461.695312 540.929688 L 461.695312 526.554688 L 661.613281 526.554688 L 646.152344 507.59375 C 642.441406 503.027344 638.609375 498.566406 634.648438 494.214844 C 630.691406 489.859375 626.617188 485.621094 622.421875 481.492188 C 618.226562 477.367188 613.921875 473.359375 609.503906 469.472656 C 605.085938 465.585938 600.5625 461.824219 595.9375 458.191406 C 591.308594 454.554688 586.585938 451.050781 581.765625 447.679688 C 576.941406 444.308594 572.03125 441.070312 567.027344 437.972656 C 562.023438 434.875 556.941406 431.914062 551.773438 429.101562 C 546.605469 426.285156 541.363281 423.613281 536.050781 421.089844 C 530.734375 418.566406 525.351562 416.191406 519.902344 413.964844 C 514.457031 411.742188 508.949219 409.671875 503.386719 407.753906 C 497.824219 405.832031 492.210938 404.070312 486.550781 402.464844 C 480.886719 400.859375 475.1875 399.414062 469.445312 398.125 C 463.703125 396.835938 457.929688 395.707031 452.121094 394.742188 C 446.316406 393.773438 440.492188 392.96875 434.640625 392.324219 C 428.789062 391.683594 422.929688 391.203125 417.050781 390.886719 C 411.175781 390.570312 405.292969 390.417969 399.410156 390.425781 C 223.894531 390.425781 81.101562 533.164062 81.101562 708.597656 C 81.089844 737.027344 84.808594 764.960938 92.265625 792.394531 C 92.464844 793.132812 92.734375 793.84375 93.078125 794.527344 C 93.417969 795.210938 93.820312 795.855469 94.289062 796.460938 C 94.753906 797.066406 95.277344 797.621094 95.855469 798.121094 C 96.429688 798.625 97.050781 799.0625 97.714844 799.445312 C 98.378906 799.824219 99.070312 800.136719 99.796875 800.378906 C 100.523438 800.621094 101.261719 800.789062 102.023438 800.886719 C 102.78125 800.984375 103.539062 801.007812 104.304688 800.953125 C 105.066406 800.902344 105.816406 800.773438 106.554688 800.574219 C 107.292969 800.371094 108.003906 800.101562 108.6875 799.761719 C 109.371094 799.421875 110.015625 799.015625 110.621094 798.550781 C 111.226562 798.082031 111.777344 797.558594 112.28125 796.984375 C 112.78125 796.40625 113.222656 795.785156 113.601562 795.121094 C 113.980469 794.460938 114.292969 793.765625 114.535156 793.039062 C 114.777344 792.316406 114.949219 791.574219 115.046875 790.816406 C 115.140625 790.058594 115.164062 789.296875 115.109375 788.535156 C 115.058594 787.773438 114.929688 787.023438 114.726562 786.285156 C 107.804688 760.851562 104.34375 734.957031 104.351562 708.597656 C 104.351562 545.964844 236.707031 413.664062 399.410156 413.664062 C 408.488281 413.648438 417.546875 414.050781 426.585938 414.871094 C 435.625 415.691406 444.609375 416.929688 453.535156 418.585938 C 462.460938 420.238281 471.289062 422.304688 480.023438 424.777344 C 488.757812 427.25 497.359375 430.121094 505.824219 433.390625 C 514.292969 436.660156 522.589844 440.316406 530.71875 444.355469 C 538.847656 448.394531 546.773438 452.800781 554.492188 457.574219 C 562.210938 462.347656 569.695312 467.46875 576.941406 472.933594 C 584.183594 478.402344 591.160156 484.191406 597.867188 490.304688 C 602.484375 494.484375 260.472656 516.59375 260.472656 516.59375 L 260.472656 526.554688 L 335.988281 526.554688 L 335.988281 540.929688 L 260.441406 540.929688 L 260.441406 550.894531 C 260.441406 550.894531 291.335938 550.523438 335.960938 551.070312 L 335.960938 611.953125 C 335.960938 705.191406 260.078125 781.035156 166.808594 781.035156 C 166.253906 781.019531 165.703125 781.058594 165.15625 781.152344 C 164.609375 781.246094 164.078125 781.394531 163.558594 781.597656 C 163.042969 781.796875 162.550781 782.050781 162.082031 782.351562 C 161.613281 782.648438 161.183594 782.992188 160.785156 783.378906 C 160.386719 783.765625 160.03125 784.191406 159.71875 784.648438 C 159.402344 785.105469 159.140625 785.589844 158.921875 786.101562 C 158.707031 786.613281 158.542969 787.140625 158.433594 787.6875 C 158.324219 788.230469 158.269531 788.78125 158.269531 789.335938 C 158.269531 789.890625 158.324219 790.4375 158.433594 790.984375 C 158.542969 791.527344 158.707031 792.054688 158.921875 792.566406 C 159.140625 793.078125 159.402344 793.5625 159.71875 794.019531 C 160.03125 794.480469 160.386719 794.902344 160.785156 795.289062 C 161.183594 795.675781 161.613281 796.019531 162.082031 796.320312 C 162.550781 796.621094 163.042969 796.871094 163.558594 797.070312 C 164.078125 797.273438 164.609375 797.421875 165.15625 797.515625 C 165.703125 797.609375 166.253906 797.652344 166.808594 797.636719 C 179.128906 797.648438 191.328125 796.4375 203.402344 794.011719 C 215.480469 791.585938 227.199219 787.988281 238.558594 783.222656 C 237.941406 783.785156 237.421875 784.429688 237.003906 785.152344 C 236.582031 785.871094 236.277344 786.640625 236.085938 787.453125 C 235.898438 788.265625 235.832031 789.089844 235.890625 789.921875 C 235.953125 790.757812 236.132812 791.5625 236.4375 792.339844 C 236.738281 793.117188 237.152344 793.835938 237.671875 794.488281 C 238.191406 795.144531 238.796875 795.707031 239.484375 796.175781 C 240.175781 796.648438 240.917969 797.007812 241.71875 797.253906 C 242.515625 797.5 243.332031 797.621094 244.167969 797.621094 C 313.984375 797.621094 370.761719 714.324219 370.761719 611.941406 L 370.761719 551.65625 L 372.335938 551.691406 L 372.335938 611.953125 C 372.335938 708.722656 345.488281 781.035156 321.480469 781.035156 C 320.945312 781.050781 320.417969 781.113281 319.894531 781.234375 C 319.371094 781.351562 318.867188 781.515625 318.375 781.730469 C 317.886719 781.945312 317.421875 782.207031 316.980469 782.511719 C 316.539062 782.816406 316.132812 783.160156 315.757812 783.546875 C 315.386719 783.929688 315.054688 784.347656 314.761719 784.792969 C 314.46875 785.242188 314.21875 785.714844 314.019531 786.210938 C 313.816406 786.707031 313.664062 787.21875 313.5625 787.742188 C 313.460938 788.269531 313.410156 788.800781 313.410156 789.335938 C 313.410156 789.871094 313.460938 790.402344 313.5625 790.925781 C 313.664062 791.453125 313.816406 791.960938 314.019531 792.457031 C 314.21875 792.953125 314.46875 793.425781 314.761719 793.875 C 315.054688 794.324219 315.386719 794.738281 315.757812 795.125 C 316.132812 795.507812 316.539062 795.851562 316.980469 796.15625 C 317.421875 796.460938 317.886719 796.722656 318.375 796.9375 C 318.867188 797.152344 319.371094 797.320312 319.894531 797.4375 C 320.417969 797.554688 320.945312 797.621094 321.480469 797.636719 C 365.300781 797.636719 388.9375 701.96875 388.9375 611.953125 L 388.9375 552.09375 L 390.519531 552.132812 L 390.519531 789.335938 C 390.519531 789.882812 390.574219 790.421875 390.679688 790.957031 C 390.785156 791.492188 390.945312 792.007812 391.152344 792.511719 C 391.363281 793.015625 391.617188 793.496094 391.921875 793.949219 C 392.222656 794.402344 392.566406 794.820312 392.953125 795.203125 C 393.335938 795.589844 393.757812 795.933594 394.210938 796.238281 C 394.664062 796.539062 395.140625 796.796875 395.644531 797.003906 C 396.148438 797.210938 396.667969 797.371094 397.203125 797.476562 C 397.738281 797.582031 398.277344 797.636719 398.820312 797.636719 C 399.367188 797.636719 399.90625 797.582031 400.441406 797.476562 C 400.976562 797.371094 401.496094 797.210938 402 797.003906 C 402.503906 796.796875 402.980469 796.539062 403.433594 796.238281 C 403.886719 795.933594 404.304688 795.589844 404.691406 795.203125 C 405.078125 794.820312 405.421875 794.402344 405.722656 793.949219 C 406.027344 793.496094 406.28125 793.015625 406.492188 792.511719 C 406.699219 792.007812 406.855469 791.492188 406.964844 790.957031 C 407.070312 790.421875 407.121094 789.882812 407.125 789.335938 L 407.125 552.621094 L 408.707031 552.671875 L 408.707031 611.953125 C 408.707031 701.96875 432.34375 797.636719 476.160156 797.636719 C 476.699219 797.621094 477.226562 797.554688 477.75 797.4375 C 478.273438 797.320312 478.777344 797.152344 479.269531 796.9375 C 479.757812 796.722656 480.222656 796.460938 480.664062 796.15625 C 481.105469 795.851562 481.511719 795.507812 481.882812 795.125 C 482.257812 794.738281 482.589844 794.324219 482.882812 793.875 C 483.175781 793.425781 483.425781 792.953125 483.625 792.457031 C 483.828125 791.960938 483.980469 791.453125 484.082031 790.925781 C 484.183594 790.402344 484.234375 789.871094 484.234375 789.335938 C 484.234375 788.800781 484.183594 788.269531 484.082031 787.742188 C 483.980469 787.21875 483.828125 786.707031 483.625 786.210938 C 483.421875 785.714844 483.175781 785.242188 482.882812 784.792969 C 482.589844 784.347656 482.257812 783.929688 481.882812 783.546875 C 481.511719 783.160156 481.105469 782.816406 480.664062 782.511719 C 480.222656 782.207031 479.757812 781.945312 479.269531 781.730469 C 478.777344 781.515625 478.273438 781.351562 477.75 781.234375 C 477.226562 781.113281 476.699219 781.050781 476.160156 781.035156 C 452.15625 781.035156 425.308594 708.722656 425.308594 611.953125 L 425.308594 553.253906 L 426.882812 553.3125 L 426.882812 611.96875 C 426.882812 714.351562 483.679688 797.648438 553.476562 797.648438 C 554.316406 797.65625 555.136719 797.535156 555.941406 797.292969 C 556.746094 797.050781 557.496094 796.695312 558.191406 796.222656 C 558.886719 795.753906 559.496094 795.191406 560.019531 794.535156 C 560.542969 793.878906 560.960938 793.160156 561.265625 792.378906 C 561.570312 791.59375 561.753906 790.785156 561.816406 789.949219 C 561.875 789.109375 561.808594 788.285156 561.617188 787.464844 C 561.425781 786.648438 561.117188 785.878906 560.691406 785.152344 C 560.265625 784.429688 559.742188 783.785156 559.121094 783.222656 C 570.472656 787.984375 582.1875 791.578125 594.261719 794.003906 C 606.332031 796.429688 618.527344 797.632812 630.839844 797.621094 C 631.398438 797.636719 631.949219 797.597656 632.496094 797.503906 C 633.042969 797.410156 633.574219 797.261719 634.089844 797.058594 C 634.609375 796.855469 635.101562 796.605469 635.570312 796.304688 C 636.035156 796.007812 636.46875 795.664062 636.867188 795.273438 C 637.265625 794.886719 637.621094 794.464844 637.933594 794.007812 C 638.246094 793.550781 638.511719 793.0625 638.726562 792.554688 C 638.945312 792.042969 639.109375 791.515625 639.21875 790.96875 C 639.328125 790.425781 639.382812 789.875 639.382812 789.320312 C 639.382812 788.765625 639.328125 788.214844 639.21875 787.671875 C 639.109375 787.128906 638.945312 786.601562 638.726562 786.089844 C 638.511719 785.578125 638.246094 785.09375 637.933594 784.636719 C 637.621094 784.175781 637.265625 783.753906 636.867188 783.367188 C 636.46875 782.980469 636.035156 782.636719 635.570312 782.335938 C 635.101562 782.035156 634.609375 781.785156 634.09375 781.582031 C 633.574219 781.382812 633.042969 781.234375 632.496094 781.140625 C 631.949219 781.042969 631.398438 781.003906 630.839844 781.019531 C 537.570312 781.019531 461.691406 705.175781 461.691406 611.941406 L 461.691406 554.867188 C 541.628906 558.980469 621.359375 567.132812 649.949219 583.128906 C 689.132812 605.046875 694.492188 663.269531 694.492188 708.597656 C 694.5 712.351562 694.433594 716.105469 694.296875 719.859375 C 694.160156 723.609375 693.953125 727.359375 693.671875 731.105469 C 693.390625 734.847656 693.039062 738.585938 692.617188 742.316406 C 692.191406 746.046875 691.695312 749.769531 691.128906 753.480469 C 690.566406 757.195312 689.925781 760.894531 689.21875 764.582031 C 688.511719 768.269531 687.734375 771.941406 686.886719 775.601562 C 686.035156 779.257812 685.117188 782.898438 684.128906 786.523438 C 683.144531 790.144531 682.085938 793.746094 680.960938 797.328125 C 679.835938 800.914062 678.640625 804.472656 677.378906 808.007812 C 676.117188 811.546875 674.785156 815.054688 673.390625 818.542969 C 671.992188 822.027344 670.53125 825.484375 669 828.914062 C 667.472656 832.347656 665.878906 835.746094 664.21875 839.113281 C 662.558594 842.484375 660.835938 845.820312 659.050781 849.121094 C 657.261719 852.425781 655.414062 855.691406 653.5 858.925781 C 651.589844 862.15625 649.617188 865.351562 647.582031 868.507812 C 645.546875 871.664062 643.453125 874.78125 641.300781 877.859375 C 639.144531 880.933594 636.933594 883.96875 634.664062 886.960938 C 632.394531 889.953125 630.066406 892.902344 627.683594 895.804688 C 625.300781 898.707031 622.863281 901.5625 620.371094 904.371094 C 617.878906 907.183594 615.335938 909.941406 612.738281 912.65625 C 610.140625 915.367188 607.488281 918.03125 604.789062 920.640625 C 602.089844 923.25 599.339844 925.808594 596.542969 928.316406 C 593.746094 930.820312 590.902344 933.273438 588.007812 935.667969 C 585.117188 938.066406 582.179688 940.40625 579.199219 942.691406 C 576.21875 944.976562 573.195312 947.203125 570.128906 949.371094 C 567.0625 951.542969 563.953125 953.652344 560.808594 955.699219 C 557.660156 957.75 554.472656 959.738281 551.25 961.667969 C 548.027344 963.597656 544.769531 965.460938 541.472656 967.265625 C 538.179688 969.070312 534.851562 970.808594 531.488281 972.484375 C 528.125 974.160156 524.734375 975.773438 521.3125 977.320312 C 517.886719 978.863281 514.4375 980.34375 510.957031 981.757812 C 507.476562 983.175781 503.96875 984.519531 500.4375 985.800781 L 500.347656 985.800781 C 499.105469 986.25 497.902344 986.792969 496.746094 987.425781 C 495.585938 988.058594 494.480469 988.777344 493.433594 989.578125 C 492.382812 990.382812 491.402344 991.261719 490.488281 992.214844 C 489.574219 993.167969 488.734375 994.183594 487.976562 995.265625 C 487.21875 996.347656 486.546875 997.480469 485.964844 998.664062 C 485.378906 999.847656 484.886719 1001.070312 484.492188 1002.328125 C 484.09375 1003.585938 483.796875 1004.871094 483.59375 1006.175781 C 483.394531 1007.480469 483.292969 1008.792969 483.296875 1010.113281 L 483.296875 1016.277344 C 483.296875 1016.929688 483.234375 1017.578125 483.105469 1018.21875 C 482.976562 1018.859375 482.789062 1019.484375 482.539062 1020.089844 C 482.289062 1020.691406 481.984375 1021.265625 481.621094 1021.8125 C 481.253906 1022.355469 480.84375 1022.859375 480.378906 1023.320312 C 479.917969 1023.785156 479.414062 1024.199219 478.871094 1024.5625 C 478.328125 1024.925781 477.75 1025.230469 477.148438 1025.480469 C 476.542969 1025.734375 475.917969 1025.921875 475.277344 1026.050781 C 474.636719 1026.175781 473.988281 1026.242188 473.332031 1026.242188 L 325.503906 1026.242188 C 324.851562 1026.242188 324.203125 1026.175781 323.558594 1026.050781 C 322.917969 1025.921875 322.292969 1025.734375 321.691406 1025.480469 C 321.085938 1025.230469 320.511719 1024.925781 319.96875 1024.5625 C 319.421875 1024.199219 318.917969 1023.785156 318.457031 1023.320312 C 317.996094 1022.859375 317.582031 1022.355469 317.21875 1021.8125 C 316.855469 1021.265625 316.546875 1020.691406 316.296875 1020.089844 C 316.046875 1019.484375 315.859375 1018.859375 315.730469 1018.21875 C 315.605469 1017.578125 315.542969 1016.929688 315.542969 1016.277344 L 315.542969 1010.105469 C 315.542969 1008.789062 315.441406 1007.476562 315.238281 1006.175781 C 315.039062 1004.871094 314.738281 1003.589844 314.339844 1002.332031 C 313.945312 1001.074219 313.453125 999.855469 312.867188 998.671875 C 312.285156 997.492188 311.613281 996.359375 310.855469 995.28125 C 310.097656 994.199219 309.261719 993.183594 308.347656 992.234375 C 307.433594 991.28125 306.453125 990.40625 305.40625 989.605469 C 304.355469 988.804688 303.253906 988.085938 302.097656 987.457031 C 300.9375 986.824219 299.738281 986.28125 298.496094 985.835938 L 298.347656 985.78125 C 289.792969 982.683594 281.402344 979.195312 273.171875 975.320312 C 264.941406 971.441406 256.910156 967.191406 249.074219 962.566406 C 241.242188 957.945312 233.636719 952.96875 226.265625 947.636719 C 218.894531 942.308594 211.785156 936.648438 204.941406 930.65625 C 198.09375 924.667969 191.542969 918.371094 185.28125 911.773438 C 179.023438 905.175781 173.082031 898.300781 167.460938 891.148438 C 161.839844 884 156.5625 876.601562 151.628906 868.960938 C 146.695312 861.320312 142.128906 853.46875 137.921875 845.402344 C 134.480469 838.8125 139.382812 830.902344 146.816406 830.902344 L 645.207031 830.902344 C 645.640625 830.902344 646.070312 830.878906 646.5 830.832031 C 646.929688 830.78125 647.355469 830.710938 647.777344 830.613281 C 648.199219 830.519531 648.613281 830.398438 649.023438 830.257812 C 649.429688 830.117188 649.828125 829.953125 650.21875 829.765625 C 650.609375 829.578125 650.988281 829.371094 651.355469 829.140625 C 651.722656 828.914062 652.074219 828.664062 652.414062 828.398438 C 652.753906 828.128906 653.078125 827.84375 653.382812 827.539062 C 653.691406 827.234375 653.980469 826.917969 654.253906 826.578125 C 654.523438 826.242188 654.777344 825.894531 655.007812 825.53125 C 655.242188 825.164062 655.453125 824.789062 655.644531 824.402344 C 655.835938 824.015625 656.003906 823.617188 656.148438 823.210938 C 656.296875 822.804688 656.417969 822.390625 656.519531 821.96875 C 656.621094 821.550781 656.699219 821.125 656.75 820.695312 C 656.804688 820.269531 656.832031 819.835938 656.839844 819.40625 C 656.84375 818.972656 656.824219 818.542969 656.78125 818.113281 C 656.738281 817.683594 656.671875 817.257812 656.582031 816.832031 C 655.46875 811.402344 650.421875 807.652344 644.871094 807.652344 L 142.882812 807.652344 C 119.949219 807.652344 105.054688 831.792969 115.347656 852.277344 L 115.492188 852.566406 C 119.902344 861.292969 124.703125 869.796875 129.898438 878.078125 C 135.089844 886.359375 140.65625 894.382812 146.59375 902.148438 C 152.53125 909.914062 158.816406 917.390625 165.445312 924.574219 C 172.078125 931.757812 179.023438 938.621094 186.289062 945.164062 C 193.554688 951.707031 201.109375 957.898438 208.945312 963.742188 C 216.785156 969.585938 224.878906 975.054688 233.222656 980.148438 C 241.566406 985.246094 250.132812 989.941406 258.910156 994.246094 C 267.691406 998.546875 276.652344 1002.4375 285.792969 1005.910156 C 286.742188 1006.261719 287.617188 1006.75 288.417969 1007.371094 C 289.21875 1007.992188 289.90625 1008.71875 290.488281 1009.546875 C 291.066406 1010.378906 291.511719 1011.277344 291.816406 1012.242188 C 292.125 1013.207031 292.28125 1014.195312 292.285156 1015.207031 L 292.285156 1019.578125 C 292.285156 1020.558594 292.332031 1021.535156 292.429688 1022.507812 C 292.523438 1023.480469 292.667969 1024.449219 292.859375 1025.410156 C 293.046875 1026.371094 293.285156 1027.320312 293.570312 1028.257812 C 293.851562 1029.191406 294.183594 1030.113281 294.558594 1031.019531 C 294.929688 1031.921875 295.347656 1032.808594 295.808594 1033.671875 C 296.273438 1034.535156 296.773438 1035.375 297.316406 1036.1875 C 297.863281 1037.003906 298.445312 1037.789062 299.066406 1038.546875 C 299.6875 1039.300781 300.34375 1040.027344 301.035156 1040.71875 C 301.726562 1041.414062 302.453125 1042.070312 303.210938 1042.691406 C 303.964844 1043.3125 304.753906 1043.894531 305.566406 1044.4375 C 306.382812 1044.984375 307.21875 1045.484375 308.082031 1045.949219 C 308.949219 1046.410156 309.832031 1046.828125 310.738281 1047.203125 C 311.640625 1047.578125 312.5625 1047.90625 313.5 1048.191406 C 314.4375 1048.476562 315.386719 1048.714844 316.347656 1048.902344 C 317.308594 1049.09375 318.273438 1049.238281 319.25 1049.335938 C 320.222656 1049.429688 321.203125 1049.480469 322.179688 1049.480469 L 476.636719 1049.480469 C 477.617188 1049.480469 478.59375 1049.429688 479.566406 1049.335938 C 480.542969 1049.238281 481.507812 1049.09375 482.46875 1048.90625 C 483.429688 1048.714844 484.378906 1048.476562 485.3125 1048.191406 C 486.25 1047.90625 487.171875 1047.578125 488.078125 1047.203125 C 488.980469 1046.828125 489.863281 1046.410156 490.730469 1045.949219 C 491.59375 1045.488281 492.429688 1044.988281 493.246094 1044.441406 C 494.058594 1043.898438 494.84375 1043.316406 495.601562 1042.695312 C 496.359375 1042.074219 497.082031 1041.417969 497.773438 1040.726562 C 498.46875 1040.035156 499.125 1039.3125 499.746094 1038.554688 C 500.367188 1037.796875 500.949219 1037.011719 501.492188 1036.199219 C 502.035156 1035.386719 502.539062 1034.546875 503 1033.683594 C 503.460938 1032.820312 503.878906 1031.9375 504.253906 1031.03125 C 504.628906 1030.128906 504.960938 1029.207031 505.242188 1028.273438 C 505.527344 1027.335938 505.765625 1026.386719 505.957031 1025.425781 C 506.148438 1024.46875 506.289062 1023.5 506.386719 1022.527344 C 506.484375 1021.550781 506.53125 1020.574219 506.53125 1019.597656 L 506.53125 1015.207031 C 506.535156 1014.191406 506.691406 1013.203125 506.996094 1012.234375 C 507.304688 1011.265625 507.746094 1010.367188 508.328125 1009.53125 C 508.910156 1008.699219 509.597656 1007.972656 510.402344 1007.351562 C 511.203125 1006.726562 512.082031 1006.238281 513.03125 1005.882812 C 518.226562 1003.898438 523.363281 1001.777344 528.445312 999.519531 C 533.527344 997.265625 538.546875 994.878906 543.503906 992.363281 C 548.460938 989.84375 553.347656 987.199219 558.167969 984.425781 C 562.984375 981.652344 567.730469 978.753906 572.394531 975.730469 C 577.0625 972.710938 581.648438 969.566406 586.148438 966.304688 C 590.652344 963.042969 595.066406 959.667969 599.390625 956.171875 C 603.714844 952.679688 607.945312 949.078125 612.082031 945.363281 C 616.21875 941.648438 620.253906 937.828125 624.191406 933.902344 C 628.125 929.976562 631.957031 925.949219 635.683594 921.824219 C 639.40625 917.699219 643.023438 913.476562 646.527344 909.160156 C 650.03125 904.84375 653.417969 900.441406 656.691406 895.949219 C 659.964844 891.457031 663.121094 886.878906 666.152344 882.222656 C 669.1875 877.566406 672.097656 872.832031 674.882812 868.019531 C 677.667969 863.210938 680.324219 858.328125 682.855469 853.378906 C 685.386719 848.429688 687.785156 843.417969 690.050781 838.34375 C 692.320312 833.269531 694.453125 828.136719 696.449219 822.953125 C 698.449219 817.765625 700.3125 812.53125 702.035156 807.246094 C 703.757812 801.960938 705.34375 796.636719 706.789062 791.269531 C 708.234375 785.902344 709.539062 780.5 710.699219 775.066406 C 711.863281 769.628906 712.882812 764.167969 713.757812 758.679688 C 714.632812 753.191406 715.367188 747.683594 715.953125 742.15625 C 716.539062 736.628906 716.984375 731.089844 717.28125 725.539062 C 717.578125 719.992188 717.730469 714.4375 717.734375 708.878906 C 717.742188 703.320312 717.601562 697.765625 717.320312 692.214844 C 717.035156 686.664062 716.605469 681.125 716.027344 675.597656 C 715.453125 670.070312 714.734375 664.558594 713.871094 659.070312 C 713.007812 653.578125 712 648.113281 710.851562 642.675781 C 709.703125 637.238281 708.410156 631.835938 706.976562 626.464844 C 705.542969 621.09375 703.972656 615.765625 702.257812 610.476562 C 700.546875 605.1875 698.699219 599.949219 696.710938 594.757812 C 694.726562 589.566406 692.601562 584.429688 690.347656 579.351562 C 688.09375 574.269531 685.703125 569.253906 683.1875 564.296875 Z M 445.085938 540.929688 L 443.511719 540.929688 L 443.511719 526.554688 L 445.085938 526.554688 Z M 352.597656 526.554688 L 354.171875 526.554688 L 354.171875 540.929688 L 352.597656 540.929688 Z M 354.171875 611.953125 C 354.171875 705.191406 304.820312 781.035156 244.167969 781.035156 C 243.945312 781.035156 243.726562 781.035156 243.507812 781.066406 C 307.789062 751.832031 352.597656 687 352.597656 611.953125 L 352.597656 551.320312 L 354.171875 551.320312 Z M 370.78125 540.929688 L 370.78125 526.554688 L 372.355469 526.554688 L 372.355469 540.929688 Z M 388.957031 540.929688 L 388.957031 526.554688 L 390.539062 526.554688 L 390.539062 540.929688 Z M 407.144531 540.929688 L 407.144531 526.554688 L 408.726562 526.554688 L 408.726562 540.929688 Z M 425.328125 540.929688 L 425.328125 526.554688 L 426.902344 526.554688 L 426.902344 540.929688 Z M 554.175781 781.066406 C 553.957031 781.066406 553.738281 781.035156 553.515625 781.035156 C 492.855469 781.035156 443.511719 705.191406 443.511719 611.953125 L 443.511719 553.996094 L 445.085938 554.070312 L 445.085938 611.953125 C 445.085938 687 489.890625 751.832031 554.175781 781.066406 Z M 554.175781 781.066406 " fill-opacity="1" fill-rule="nonzero"/></g><g fill="#ffae32" fill-opacity="1"><g transform="translate(271.083979, 1179.13675)"><g><path d="M 3.953125 -26.171875 C 3.953125 -30.285156 4.359375 -36.800781 5.171875 -45.71875 C 5.992188 -54.644531 6.40625 -61.160156 6.40625 -65.265625 C 6.40625 -70.847656 5.859375 -75.695312 4.765625 -79.8125 L 4.3125 -81.796875 L 6.859375 -82.71875 C 8.335938 -83.03125 9.8125 -83.1875 11.28125 -83.1875 C 12.757812 -83.1875 14.972656 -82.914062 17.921875 -82.375 C 20.867188 -81.832031 23.347656 -81.5625 25.359375 -81.5625 C 26.523438 -81.5625 28.460938 -81.734375 31.171875 -82.078125 C 33.890625 -82.429688 35.910156 -82.609375 37.234375 -82.609375 C 42.972656 -82.609375 47.722656 -81.171875 51.484375 -78.296875 C 55.242188 -75.429688 57.125 -71.359375 57.125 -66.078125 C 57.125 -61.578125 56.054688 -57.425781 53.921875 -53.625 C 51.785156 -49.832031 49.171875 -47.273438 46.078125 -45.953125 C 55.222656 -30.285156 61.3125 -17.800781 64.34375 -8.5 C 64.800781 -7.019531 65.03125 -5.773438 65.03125 -4.765625 C 65.03125 -2.210938 63.753906 -0.9375 61.203125 -0.9375 C 59.179688 -0.9375 56.925781 -1.671875 54.4375 -3.140625 C 51.957031 -4.617188 50.253906 -6.285156 49.328125 -8.140625 L 33.046875 -40.375 C 33.046875 -40.832031 32.8125 -41.0625 32.34375 -41.0625 C 32.03125 -41.0625 31.757812 -41.023438 31.53125 -40.953125 L 21.40625 -37.703125 C 20.863281 -36.765625 20.472656 -31.3125 20.234375 -21.34375 C 20.003906 -11.382812 19.890625 -6.328125 19.890625 -6.171875 C 19.734375 -5.003906 18.957031 -3.78125 17.5625 -2.5 C 16.164062 -1.21875 14.691406 -0.578125 13.140625 -0.578125 C 12.441406 -0.578125 11.898438 -0.65625 11.515625 -0.8125 C 6.472656 -5.851562 3.953125 -14.304688 3.953125 -26.171875 Z M 20.703125 -57.46875 C 20.703125 -53.207031 20.859375 -51.078125 21.171875 -51.078125 C 21.484375 -50.535156 22.179688 -50.265625 23.265625 -50.265625 C 24.660156 -50.265625 26.539062 -50.726562 28.90625 -51.65625 C 31.269531 -52.582031 33.269531 -53.515625 34.90625 -54.453125 L 37.46875 -55.734375 C 38.707031 -56.660156 39.90625 -58.191406 41.0625 -60.328125 C 42.226562 -62.460938 42.8125 -64.613281 42.8125 -66.78125 C 42.8125 -68.175781 42.539062 -69.457031 42 -70.625 C 40.988281 -71.394531 39.050781 -71.78125 36.1875 -71.78125 C 34.320312 -71.78125 32.222656 -71.625 29.890625 -71.3125 C 27.566406 -71.007812 25.648438 -70.660156 24.140625 -70.265625 C 22.628906 -69.878906 21.796875 -69.609375 21.640625 -69.453125 L 21.53125 -69.578125 C 20.976562 -69.578125 20.703125 -65.539062 20.703125 -57.46875 Z M 20.703125 -57.46875 "/></g></g></g><g fill="#ffae32" fill-opacity="1"><g transform="translate(337.748897, 1179.13675)"><g><path d="M 4.1875 -41.421875 C 4.1875 -42.578125 4.691406 -43.539062 5.703125 -44.3125 C 6.710938 -45.09375 7.914062 -45.484375 9.3125 -45.484375 C 10.46875 -45.484375 11.671875 -45.175781 12.921875 -44.5625 L 32.453125 -25.25 L 44.90625 -42.109375 C 46.613281 -43.972656 49.445312 -44.90625 53.40625 -44.90625 C 55.113281 -44.90625 56.546875 -44.710938 57.703125 -44.328125 C 59.097656 -43.398438 59.796875 -42.238281 59.796875 -40.84375 C 59.796875 -38.664062 57.894531 -35.132812 54.09375 -30.25 L 27.453125 4.3125 C 27.378906 4.15625 27.03125 4.441406 26.40625 5.171875 C 25.789062 5.910156 25 6.859375 24.03125 8.015625 C 23.0625 9.179688 22.070312 10.347656 21.0625 11.515625 C 20.050781 12.679688 19.097656 13.671875 18.203125 14.484375 C 17.316406 15.296875 16.675781 15.703125 16.28125 15.703125 C 15.976562 15.703125 15.828125 15.546875 15.828125 15.234375 C 15.515625 15.390625 15.007812 15.46875 14.3125 15.46875 C 12.914062 15.46875 11.578125 14.882812 10.296875 13.71875 C 9.015625 12.5625 8.375 11.363281 8.375 10.125 C 8.375 9.113281 8.835938 8.335938 9.765625 7.796875 L 22.921875 -14.1875 L 24.546875 -16.40625 L 21.0625 -19.203125 C 19.894531 -20.128906 17.625 -22.898438 14.25 -27.515625 C 10.875 -32.128906 8.332031 -35.25 6.625 -36.875 C 5 -38.425781 4.1875 -39.941406 4.1875 -41.421875 Z M 4.1875 -41.421875 "/></g></g></g><g fill="#ffae32" fill-opacity="1"><g transform="translate(398.829317, 1179.13675)"><g><path d="M 3.953125 -25.9375 C 3.953125 -29.039062 4.628906 -31.851562 5.984375 -34.375 C 7.347656 -36.894531 9.171875 -38.929688 11.453125 -40.484375 C 13.742188 -42.035156 16.015625 -43.296875 18.265625 -44.265625 C 20.515625 -45.234375 22.800781 -45.953125 25.125 -46.421875 C 26.601562 -47.191406 28.078125 -47.578125 29.546875 -47.578125 C 30.941406 -47.578125 32.472656 -47.171875 34.140625 -46.359375 C 35.804688 -45.546875 36.988281 -44.867188 37.6875 -44.328125 C 38.394531 -43.785156 39.5625 -42.816406 41.1875 -41.421875 C 45.375 -38.085938 47.46875 -33.394531 47.46875 -27.34375 C 47.46875 -23.769531 46.75 -20.101562 45.3125 -16.34375 C 43.875 -12.582031 42.109375 -9.382812 40.015625 -6.75 C 38.617188 -4.96875 36.117188 -3.414062 32.515625 -2.09375 C 28.910156 -0.769531 25.285156 -0.109375 21.640625 -0.109375 C 16.054688 -0.109375 12.296875 -1.660156 10.359375 -4.765625 C 9.421875 -5.617188 8.796875 -6.21875 8.484375 -6.5625 C 8.179688 -6.914062 7.929688 -7.441406 7.734375 -8.140625 C 7.546875 -8.835938 7.296875 -9.5 6.984375 -10.125 C 5.816406 -11.675781 4.847656 -16.175781 4.078125 -23.625 C 3.992188 -24.164062 3.953125 -24.9375 3.953125 -25.9375 Z M 16.40625 -17.109375 C 16.40625 -12.992188 17.757812 -10.742188 20.46875 -10.359375 C 20.625 -10.359375 20.816406 -10.335938 21.046875 -10.296875 C 21.285156 -10.253906 21.445312 -10.234375 21.53125 -10.234375 C 23.851562 -10.234375 25.984375 -11.28125 27.921875 -13.375 C 29.003906 -14.851562 30.34375 -17.566406 31.9375 -21.515625 C 33.53125 -25.472656 34.328125 -28.890625 34.328125 -31.765625 C 34.328125 -35.867188 32.460938 -37.921875 28.734375 -37.921875 C 27.109375 -37.921875 26.023438 -37.804688 25.484375 -37.578125 C 24.859375 -37.347656 23.960938 -36.648438 22.796875 -35.484375 C 21.328125 -34.015625 19.894531 -31.394531 18.5 -27.625 C 17.101562 -23.863281 16.40625 -20.359375 16.40625 -17.109375 Z M 16.40625 -17.109375 "/></g></g></g><g fill="#ffae32" fill-opacity="1"><g transform="translate(448.62441, 1179.13675)"><g><path d="M 4.765625 -12.453125 C 4.765625 -14.703125 5.382812 -17.023438 6.625 -19.421875 C 7.40625 -23.921875 7.796875 -27.957031 7.796875 -31.53125 C 7.796875 -31.914062 7.773438 -32.414062 7.734375 -33.03125 C 7.691406 -33.65625 7.671875 -34.160156 7.671875 -34.546875 L 7.328125 -42.703125 L 9.1875 -43.75 C 10.582031 -44.363281 11.785156 -44.671875 12.796875 -44.671875 C 14.273438 -44.671875 15.632812 -44.128906 16.875 -43.046875 L 18.84375 -41.53125 L 21.296875 -42.9375 C 22.222656 -43.863281 23.539062 -44.328125 25.25 -44.328125 C 27.101562 -44.328125 29 -43.859375 30.9375 -42.921875 C 32.882812 -41.992188 33.9375 -41.179688 34.09375 -40.484375 C 34.320312 -40.566406 35.171875 -40.9375 36.640625 -41.59375 C 38.117188 -42.25 39.515625 -42.8125 40.828125 -43.28125 C 42.148438 -43.75 43.203125 -43.984375 43.984375 -43.984375 C 44.285156 -43.984375 44.515625 -43.941406 44.671875 -43.859375 C 46.460938 -43.703125 48.710938 -42.65625 51.421875 -40.71875 C 53.515625 -39.863281 54.929688 -38.738281 55.671875 -37.34375 C 56.410156 -35.945312 56.78125 -34.125 56.78125 -31.875 C 56.78125 -31.175781 56.738281 -30.398438 56.65625 -29.546875 C 56.582031 -28.691406 56.503906 -27.644531 56.421875 -26.40625 C 56.347656 -25.164062 56.269531 -24.117188 56.1875 -23.265625 C 56.039062 -21.097656 55.769531 -18.753906 55.375 -16.234375 C 54.988281 -13.710938 54.796875 -12.101562 54.796875 -11.40625 C 54.796875 -10.394531 55.066406 -9.65625 55.609375 -9.1875 C 56.148438 -8.726562 57.117188 -8.421875 58.515625 -8.265625 L 61.421875 -7.796875 C 62.515625 -6.941406 63.0625 -5.738281 63.0625 -4.1875 C 63.0625 -2.945312 62.671875 -1.84375 61.890625 -0.875 C 61.117188 0.09375 60.113281 0.578125 58.875 0.578125 C 58.5625 0.578125 58.09375 0.5 57.46875 0.34375 C 52.507812 -0.96875 48.726562 -2.769531 46.125 -5.0625 C 43.53125 -7.351562 42.234375 -10.707031 42.234375 -15.125 C 42.234375 -16.363281 42.597656 -18.882812 43.328125 -22.6875 C 44.066406 -26.488281 44.4375 -28.851562 44.4375 -29.78125 C 44.4375 -31.414062 44.085938 -32.234375 43.390625 -32.234375 C 42.390625 -32.234375 41.207031 -30.875 39.84375 -28.15625 C 38.488281 -25.4375 37.8125 -22.644531 37.8125 -19.78125 C 37.8125 -13.34375 36.609375 -8.335938 34.203125 -4.765625 C 32.960938 -3.054688 31.21875 -2.203125 28.96875 -2.203125 C 27.414062 -2.203125 26.078125 -2.6875 24.953125 -3.65625 C 23.828125 -4.632812 23.265625 -5.972656 23.265625 -7.671875 C 23.265625 -8.453125 23.457031 -9.425781 23.84375 -10.59375 C 23.84375 -10.820312 24.09375 -12.117188 24.59375 -14.484375 C 25.101562 -16.847656 25.550781 -19.289062 25.9375 -21.8125 C 26.332031 -24.332031 26.53125 -26.289062 26.53125 -27.6875 C 26.53125 -29.238281 26.296875 -30.015625 25.828125 -30.015625 C 25.128906 -30.015625 24.003906 -28.695312 22.453125 -26.0625 C 21.054688 -23.882812 19.953125 -21.535156 19.140625 -19.015625 C 18.328125 -16.492188 17.785156 -14.421875 17.515625 -12.796875 C 17.242188 -11.171875 16.875 -8.457031 16.40625 -4.65625 C 15.082031 -3.570312 13.644531 -3.03125 12.09375 -3.03125 C 10.082031 -3.03125 8.359375 -3.941406 6.921875 -5.765625 C 5.484375 -7.585938 4.765625 -9.816406 4.765625 -12.453125 Z M 4.765625 -12.453125 "/></g></g></g><g fill="#ffae32" fill-opacity="1"><g transform="translate(514.009548, 1179.13675)"><g><path d="M 4.53125 -69.921875 C 5.539062 -71.859375 7.789062 -72.828125 11.28125 -72.828125 C 13.300781 -72.828125 15.222656 -72.109375 17.046875 -70.671875 C 18.867188 -69.242188 19.78125 -67.789062 19.78125 -66.3125 C 19.78125 -64.757812 18.65625 -63.554688 16.40625 -62.703125 C 15.238281 -62.242188 14.113281 -62.015625 13.03125 -62.015625 C 10.707031 -62.015625 8.707031 -62.804688 7.03125 -64.390625 C 5.363281 -65.984375 4.53125 -67.828125 4.53125 -69.921875 Z M 6.171875 -38.15625 C 6.171875 -43.59375 6.320312 -46.734375 6.625 -47.578125 C 6.863281 -48.359375 7.601562 -49.078125 8.84375 -49.734375 C 10.082031 -50.390625 11.398438 -50.71875 12.796875 -50.71875 C 14.816406 -50.71875 16.910156 -50.019531 19.078125 -48.625 L 16.984375 -2.09375 C 16.828125 -2.09375 16.648438 -2.128906 16.453125 -2.203125 C 16.265625 -2.285156 16.132812 -2.285156 16.0625 -2.203125 C 15.820312 -2.128906 15.472656 -1.859375 15.015625 -1.390625 C 14.460938 -0.847656 13.523438 -0.882812 12.203125 -1.5 C 10.890625 -2.125 10.003906 -2.707031 9.546875 -3.25 C 9.148438 -3.875 8.453125 -7.171875 7.453125 -13.140625 C 6.597656 -17.328125 6.171875 -25.664062 6.171875 -38.15625 Z M 6.171875 -38.15625 "/></g></g></g></svg>